REM DIRINDEX 1\2,1\3,1\4
REM DIRNAME folder01,folder02,folder03,folder04
TITLE ""
FILE "DISC3Track42.mp3" MP3
  TRACK 01 AUDIO
    TITLE "0:"
    INDEX 01 00:00:00
  TRACK 02 AUDIO
    TITLE "4:cjc105_6611"
    INDEX 01 00:00:19
  TRACK 03 AUDIO
    TITLE "0:"
    INDEX 01 00:02:71
  TRACK 04 AUDIO
    TITLE "2:cjc105_6612"
    INDEX 01 00:03:41
  TRACK 05 AUDIO
    TITLE "3:cjc105_6613"
    INDEX 01 00:05:30
  TRACK 06 AUDIO
    TITLE "0:"
    INDEX 01 00:07:15
  TRACK 07 AUDIO
    TITLE "2:cjc105_6614"
    INDEX 01 00:07:33
  TRACK 08 AUDIO
    TITLE "3:cjc105_6615"
    INDEX 01 00:08:46
  TRACK 09 AUDIO
    TITLE "0:"
    INDEX 01 00:09:71
  TRACK 10 AUDIO
    TITLE "2:cjc105_6616"
    INDEX 01 00:10:19
  TRACK 11 AUDIO
    TITLE "3:cjc105_6617"
    INDEX 01 00:11:40
  TRACK 12 AUDIO
    TITLE "0:"
    INDEX 01 00:12:69
  TRACK 13 AUDIO
    TITLE "2:cjc105_6618"
    INDEX 01 00:13:08
  TRACK 14 AUDIO
    TITLE "3:cjc105_6619"
    INDEX 01 00:14:62
  TRACK 15 AUDIO
    TITLE "0:"
    INDEX 01 00:16:24
  TRACK 16 AUDIO
    TITLE "2:cjc105_6620"
    INDEX 01 00:16:40
  TRACK 17 AUDIO
    TITLE "3:cjc105_6621"
    INDEX 01 00:18:15
  TRACK 18 AUDIO
    TITLE "0:"
    INDEX 01 00:19:63
  TRACK 19 AUDIO
    TITLE "2:cjc105_6622"
    INDEX 01 00:20:12
  TRACK 20 AUDIO
    TITLE "3:cjc105_6623"
    INDEX 01 00:21:19
  TRACK 21 AUDIO
    TITLE "0:"
    INDEX 01 00:22:34
  TRACK 22 AUDIO
    TITLE "2:cjc105_6624"
    INDEX 01 00:22:62
  TRACK 23 AUDIO
    TITLE "3:cjc105_6625"
    INDEX 01 00:24:14
  TRACK 24 AUDIO
    TITLE "0:"
    INDEX 01 00:25:66
  TRACK 25 AUDIO
    TITLE "2:cjc105_6626"
    INDEX 01 00:26:17
  TRACK 26 AUDIO
    TITLE "3:cjc105_6627"
    INDEX 01 00:27:16
  TRACK 27 AUDIO
    TITLE "0:"
    INDEX 01 00:28:37
  TRACK 28 AUDIO
    TITLE "2:cjc105_6628"
    INDEX 01 00:28:59
  TRACK 29 AUDIO
    TITLE "3:cjc105_6629"
    INDEX 01 00:30:36
  TRACK 30 AUDIO
    TITLE "0:"
    INDEX 01 00:32:00
  TRACK 31 AUDIO
    TITLE "2:cjc105_6630"
    INDEX 01 00:32:23
  TRACK 32 AUDIO
    TITLE "3:cjc105_6631"
    INDEX 01 00:33:15
  TRACK 33 AUDIO
    TITLE "0:"
    INDEX 01 00:34:00
  TRACK 34 AUDIO
    TITLE "2:cjc105_6632"
    INDEX 01 00:34:22
  TRACK 35 AUDIO
    TITLE "3:cjc105_6633"
    INDEX 01 00:36:05
  TRACK 36 AUDIO
    TITLE "0:"
    INDEX 01 00:38:14
  TRACK 37 AUDIO
    TITLE "2:cjc105_6634"
    INDEX 01 00:38:37
  TRACK 38 AUDIO
    TITLE "3:cjc105_6635"
    INDEX 01 00:39:68
  TRACK 39 AUDIO
    TITLE "0:"
    INDEX 01 00:41:53
  TRACK 40 AUDIO
    TITLE "2:cjc105_6636"
    INDEX 01 00:42:02
  TRACK 41 AUDIO
    TITLE "3:cjc105_6637"
    INDEX 01 00:43:31
  TRACK 42 AUDIO
    TITLE "0:"
    INDEX 01 00:44:67
  TRACK 43 AUDIO
    TITLE "2:cjc105_6638"
    INDEX 01 00:45:12
  TRACK 44 AUDIO
    TITLE "3:cjc105_6639"
    INDEX 01 00:46:21
  TRACK 45 AUDIO
    TITLE "0:"
    INDEX 01 00:47:42
  TRACK 46 AUDIO
    TITLE "2:cjc105_6640"
    INDEX 01 00:47:64
  TRACK 47 AUDIO
    TITLE "3:cjc105_6641"
    INDEX 01 00:49:45
  TRACK 48 AUDIO
    TITLE "0:"
    INDEX 01 00:51:58
  TRACK 49 AUDIO
    TITLE "2:cjc105_6642"
    INDEX 01 00:52:06
  TRACK 50 AUDIO
    TITLE "3:cjc105_6643"
    INDEX 01 00:53:45
  TRACK 51 AUDIO
    TITLE "0:"
    INDEX 01 00:54:56
  TRACK 52 AUDIO
    TITLE "2:cjc105_6644"
    INDEX 01 00:55:03
  TRACK 53 AUDIO
    TITLE "3:cjc105_6645"
    INDEX 01 00:56:45
  TRACK 54 AUDIO
    TITLE "0:"
    INDEX 01 00:57:58
  TRACK 55 AUDIO
    TITLE "2:cjc105_6646"
    INDEX 01 00:57:74
  TRACK 56 AUDIO
    TITLE "3:cjc105_6647"
    INDEX 01 00:59:41
  TRACK 57 AUDIO
    TITLE "0:"
    INDEX 01 01:00:74
  TRACK 58 AUDIO
    TITLE "2:cjc105_6648"
    INDEX 01 01:01:17
  TRACK 59 AUDIO
    TITLE "3:cjc105_6649"
    INDEX 01 01:02:55
  TRACK 60 AUDIO
    TITLE "0:"
    INDEX 01 01:04:21
  TRACK 61 AUDIO
    TITLE "2:cjc105_6650"
    INDEX 01 01:04:35
  TRACK 62 AUDIO
    TITLE "3:cjc105_6651"
    INDEX 01 01:05:71
  TRACK 63 AUDIO
    TITLE "0:"
    INDEX 01 01:06:73
  TRACK 64 AUDIO
    TITLE "2:cjc105_6652"
    INDEX 01 01:07:19
  TRACK 65 AUDIO
    TITLE "3:cjc105_6653"
    INDEX 01 01:08:64
  TRACK 66 AUDIO
    TITLE "0:"
    INDEX 01 01:10:30
  TRACK 67 AUDIO
    TITLE "2:cjc105_6654"
    INDEX 01 01:10:53
  TRACK 68 AUDIO
    TITLE "3:cjc105_6655"
    INDEX 01 01:12:24
  TRACK 69 AUDIO
    TITLE "0:"
    INDEX 01 01:13:67
  TRACK 70 AUDIO
    TITLE "2:cjc105_6656"
    INDEX 01 01:14:14
  TRACK 71 AUDIO
    TITLE "3:cjc105_6657"
    INDEX 01 01:15:64
  TRACK 72 AUDIO
    TITLE "0:"
    INDEX 01 01:17:51
  TRACK 73 AUDIO
    TITLE "2:cjc105_6658"
    INDEX 01 01:17:71
  TRACK 74 AUDIO
    TITLE "3:cjc105_6659"
    INDEX 01 01:19:03
  TRACK 75 AUDIO
    TITLE "0:"
    INDEX 01 01:20:14
  TRACK 76 AUDIO
    TITLE "2:cjc105_6660"
    INDEX 01 01:20:32
  TRACK 77 AUDIO
    TITLE "3:cjc105_6661"
    INDEX 01 01:22:09
  TRACK 78 AUDIO
    TITLE "0:"
    INDEX 01 01:23:30
  TRACK 79 AUDIO
    TITLE "2:cjc105_6662"
    INDEX 01 01:23:52
  TRACK 80 AUDIO
    TITLE "3:cjc105_6663"
    INDEX 01 01:24:71
  TRACK 81 AUDIO
    TITLE "0:"
    INDEX 01 01:26:15
  TRACK 82 AUDIO
    TITLE "2:cjc105_6664"
    INDEX 01 01:26:38
  TRACK 83 AUDIO
    TITLE "3:cjc105_6665"
    INDEX 01 01:28:08
  TRACK 84 AUDIO
    TITLE "0:"
    INDEX 01 01:29:29
  TRACK 85 AUDIO
    TITLE "2:cjc105_6666"
    INDEX 01 01:29:56
  TRACK 86 AUDIO
    TITLE "3:cjc105_6667"
    INDEX 01 01:31:00
  TRACK 87 AUDIO
    TITLE "0:"
    INDEX 01 01:32:37
  TRACK 88 AUDIO
    TITLE "2:cjc105_6668"
    INDEX 01 01:32:55
  TRACK 89 AUDIO
    TITLE "3:cjc105_6669"
    INDEX 01 01:34:08
  TRACK 90 AUDIO
    TITLE "0:"
    INDEX 01 01:35:22
  TRACK 91 AUDIO
    TITLE "2:cjc105_6670"
    INDEX 01 01:35:39
  TRACK 92 AUDIO
    TITLE "3:cjc105_6671"
    INDEX 01 01:37:22
  TRACK 93 AUDIO
    TITLE "0:"
    INDEX 01 01:39:41
  TRACK 94 AUDIO
    TITLE "2:cjc105_6672"
    INDEX 01 01:39:61
  TRACK 95 AUDIO
    TITLE "3:cjc105_6673"
    INDEX 01 01:41:18
  TRACK 96 AUDIO
    TITLE "0:"
    INDEX 01 01:42:67
  TRACK 97 AUDIO
    TITLE "2:cjc105_6674"
    INDEX 01 01:43:09
  TRACK 98 AUDIO
    TITLE "3:cjc105_6675"
    INDEX 01 01:44:56
  TRACK 99 AUDIO
    TITLE "0:"
    INDEX 01 01:46:37
  TRACK 100 AUDIO
    TITLE "2:cjc105_6676"
    INDEX 01 01:46:63
  TRACK 101 AUDIO
    TITLE "3:cjc105_6677"
    INDEX 01 01:48:30
  TRACK 102 AUDIO
    TITLE "0:"
    INDEX 01 01:49:57
  TRACK 103 AUDIO
    TITLE "2:cjc105_6678"
    INDEX 01 01:49:73
  TRACK 104 AUDIO
    TITLE "3:cjc105_6679"
    INDEX 01 01:51:01
  TRACK 105 AUDIO
    TITLE "0:"
    INDEX 01 01:52:04
  TRACK 106 AUDIO
    TITLE "2:cjc105_6680"
    INDEX 01 01:52:28
  TRACK 107 AUDIO
    TITLE "3:cjc105_6681"
    INDEX 01 01:54:54
  TRACK 108 AUDIO
    TITLE "0:"
    INDEX 01 01:56:16
  TRACK 109 AUDIO
    TITLE "2:cjc105_6682"
    INDEX 01 01:56:36
  TRACK 110 AUDIO
    TITLE "3:cjc105_6683"
    INDEX 01 01:58:07
  TRACK 111 AUDIO
    TITLE "0:"
    INDEX 01 01:59:36
  TRACK 112 AUDIO
    TITLE "2:cjc105_6684"
    INDEX 01 01:59:59
  TRACK 113 AUDIO
    TITLE "3:cjc105_6685"
    INDEX 01 02:01:37
  TRACK 114 AUDIO
    TITLE "0:"
    INDEX 01 02:03:28
  TRACK 115 AUDIO
    TITLE "2:cjc105_6686"
    INDEX 01 02:03:47
  TRACK 116 AUDIO
    TITLE "3:cjc105_6687"
    INDEX 01 02:05:33
  TRACK 117 AUDIO
    TITLE "0:"
    INDEX 01 02:06:59
  TRACK 118 AUDIO
    TITLE "2:cjc105_6688"
    INDEX 01 02:07:02
  TRACK 119 AUDIO
    TITLE "3:cjc105_6689"
    INDEX 01 02:08:29
  TRACK 120 AUDIO
    TITLE "0:"
    INDEX 01 02:09:58
  TRACK 121 AUDIO
    TITLE "2:cjc105_6690"
    INDEX 01 02:10:00
  TRACK 122 AUDIO
    TITLE "3:cjc105_6691"
    INDEX 01 02:11:35
  TRACK 123 AUDIO
    TITLE "0:"
    INDEX 01 02:13:09
  TRACK 124 AUDIO
    TITLE "2:cjc105_6692"
    INDEX 01 02:13:28
  TRACK 125 AUDIO
    TITLE "3:cjc105_6693"
    INDEX 01 02:14:61
  TRACK 126 AUDIO
    TITLE "0:"
    INDEX 01 02:15:74
  TRACK 127 AUDIO
    TITLE "2:cjc105_6694"
    INDEX 01 02:16:13
  TRACK 128 AUDIO
    TITLE "3:cjc105_6695"
    INDEX 01 02:17:51
  TRACK 129 AUDIO
    TITLE "0:"
    INDEX 01 02:19:23
  TRACK 130 AUDIO
    TITLE "2:cjc105_6696"
    INDEX 01 02:19:40
  TRACK 131 AUDIO
    TITLE "3:cjc105_6697"
    INDEX 01 02:21:22
  TRACK 132 AUDIO
    TITLE "0:"
    INDEX 01 02:23:11
  TRACK 133 AUDIO
    TITLE "2:cjc105_6698"
    INDEX 01 02:23:30
  TRACK 134 AUDIO
    TITLE "3:cjc105_6699"
    INDEX 01 02:25:20
  TRACK 135 AUDIO
    TITLE "0:"
    INDEX 01 02:26:60
  TRACK 136 AUDIO
    TITLE "2:cjc105_6700"
    INDEX 01 02:27:01
  TRACK 137 AUDIO
    TITLE "3:cjc105_6701"
    INDEX 01 02:28:41
  TRACK 138 AUDIO
    TITLE "0:"
    INDEX 01 02:29:41
  TRACK 139 AUDIO
    TITLE "2:cjc105_6702"
    INDEX 01 02:29:57
  TRACK 140 AUDIO
    TITLE "3:cjc105_6703"
    INDEX 01 02:31:22
  TRACK 141 AUDIO
    TITLE "0:"
    INDEX 01 02:32:55
  TRACK 142 AUDIO
    TITLE "2:cjc105_6704"
    INDEX 01 02:33:01
  TRACK 143 AUDIO
    TITLE "3:cjc105_6705"
    INDEX 01 02:34:62
  TRACK 144 AUDIO
    TITLE "0:"
    INDEX 01 02:36:47
  TRACK 145 AUDIO
    TITLE "2:cjc105_6706"
    INDEX 01 02:36:66
  TRACK 146 AUDIO
    TITLE "3:cjc105_6707"
    INDEX 01 02:38:38
  TRACK 147 AUDIO
    TITLE "0:"
    INDEX 01 02:40:21
  TRACK 148 AUDIO
    TITLE "2:cjc105_6708"
    INDEX 01 02:40:43
  TRACK 149 AUDIO
    TITLE "3:cjc105_6709"
    INDEX 01 02:42:06
  TRACK 150 AUDIO
    TITLE "0:"
    INDEX 01 02:43:21
  TRACK 151 AUDIO
    TITLE "2:cjc105_6710"
    INDEX 01 02:43:37
  TRACK 152 AUDIO
    TITLE "3:cjc105_6711"
    INDEX 01 02:44:46
  TRACK 153 AUDIO
    TITLE "0:"
    INDEX 01 02:45:44
  TRACK 154 AUDIO
    TITLE "2:cjc105_6712"
    INDEX 01 02:45:61
  TRACK 155 AUDIO
    TITLE "3:cjc105_6713"
    INDEX 01 02:47:51
  TRACK 156 AUDIO
    TITLE "0:"
    INDEX 01 02:49:53
  TRACK 157 AUDIO
    TITLE "2:cjc105_6714"
    INDEX 01 02:49:69
  TRACK 158 AUDIO
    TITLE "3:cjc105_6715"
    INDEX 01 02:51:17
  TRACK 159 AUDIO
    TITLE "0:"
    INDEX 01 02:52:50
  TRACK 160 AUDIO
    TITLE "2:cjc105_6716"
    INDEX 01 02:53:02
  TRACK 161 AUDIO
    TITLE "3:cjc105_6717"
    INDEX 01 02:54:29
  TRACK 162 AUDIO
    TITLE "0:"
    INDEX 01 02:55:52
  TRACK 163 AUDIO
    TITLE "2:cjc105_6718"
    INDEX 01 02:56:02
  TRACK 164 AUDIO
    TITLE "3:cjc105_6719"
    INDEX 01 02:57:63
  TRACK 165 AUDIO
    TITLE "0:"
    INDEX 01 02:59:01
  TRACK 166 AUDIO
    TITLE "2:cjc105_6720"
    INDEX 01 02:59:28
  TRACK 167 AUDIO
    TITLE "3:cjc105_6721"
    INDEX 01 03:00:69
  TRACK 168 AUDIO
    TITLE "0:"
    INDEX 01 03:02:30
  TRACK 169 AUDIO
    TITLE "2:cjc105_6722"
    INDEX 01 03:02:56
  TRACK 170 AUDIO
    TITLE "3:cjc105_6723"
    INDEX 01 03:03:71
  TRACK 171 AUDIO
    TITLE "0:"
    INDEX 01 03:05:07
  TRACK 172 AUDIO
    TITLE "2:cjc105_6724"
    INDEX 01 03:05:23
  TRACK 173 AUDIO
    TITLE "3:cjc105_6725"
    INDEX 01 03:07:32
  TRACK 174 AUDIO
    TITLE "0:"
    INDEX 01 03:08:49
  TRACK 175 AUDIO
    TITLE "2:cjc105_6726"
    INDEX 01 03:08:64
  TRACK 176 AUDIO
    TITLE "3:cjc105_6727"
    INDEX 01 03:10:32
  TRACK 177 AUDIO
    TITLE "0:"
    INDEX 01 03:11:49
  TRACK 178 AUDIO
    TITLE "2:cjc105_6728"
    INDEX 01 03:11:63
  TRACK 179 AUDIO
    TITLE "3:cjc105_6729"
    INDEX 01 03:14:10
  TRACK 180 AUDIO
    TITLE "0:"
    INDEX 01 03:16:01
  TRACK 181 AUDIO
    TITLE "2:cjc105_6730"
    INDEX 01 03:16:19
  TRACK 182 AUDIO
    TITLE "3:cjc105_6731"
    INDEX 01 03:18:06
  TRACK 183 AUDIO
    TITLE "0:"
    INDEX 01 03:19:35
  TRACK 184 AUDIO
    TITLE "2:cjc105_6732"
    INDEX 01 03:19:51
  TRACK 185 AUDIO
    TITLE "3:cjc105_6733"
    INDEX 01 03:21:04
  TRACK 186 AUDIO
    TITLE "0:"
    INDEX 01 03:22:41
  TRACK 187 AUDIO
    TITLE "2:cjc105_6734"
    INDEX 01 03:22:63
  TRACK 188 AUDIO
    TITLE "3:cjc105_6735"
    INDEX 01 03:23:68
  TRACK 189 AUDIO
    TITLE "0:"
    INDEX 01 03:25:06
  TRACK 190 AUDIO
    TITLE "2:cjc105_6736"
    INDEX 01 03:25:28
  TRACK 191 AUDIO
    TITLE "3:cjc105_6737"
    INDEX 01 03:26:37
  TRACK 192 AUDIO
    TITLE "0:"
    INDEX 01 03:27:48
  TRACK 193 AUDIO
    TITLE "2:cjc105_6738"
    INDEX 01 03:27:68
  TRACK 194 AUDIO
    TITLE "3:cjc105_6739"
    INDEX 01 03:29:33
  TRACK 195 AUDIO
    TITLE "0:"
    INDEX 01 03:31:03
  TRACK 196 AUDIO
    TITLE "2:cjc105_6740"
    INDEX 01 03:31:28
  TRACK 197 AUDIO
    TITLE "3:cjc105_6741"
    INDEX 01 03:32:73
  TRACK 198 AUDIO
    TITLE "0:"
    INDEX 01 03:35:01
  TRACK 199 AUDIO
    TITLE "2:cjc105_6742"
    INDEX 01 03:35:18
  TRACK 200 AUDIO
    TITLE "3:cjc105_6743"
    INDEX 01 03:36:43
  TRACK 201 AUDIO
    TITLE "0:"
    INDEX 01 03:37:70
  TRACK 202 AUDIO
    TITLE "2:cjc105_6744"
    INDEX 01 03:38:11
  TRACK 203 AUDIO
    TITLE "3:cjc105_6745"
    INDEX 01 03:40:19
  TRACK 204 AUDIO
    TITLE "0:"
    INDEX 01 03:41:38
  TRACK 205 AUDIO
    TITLE "2:cjc105_6746"
    INDEX 01 03:41:56
  TRACK 206 AUDIO
    TITLE "3:cjc105_6747"
    INDEX 01 03:43:53
  TRACK 207 AUDIO
    TITLE "0:"
    INDEX 01 03:45:21
  TRACK 208 AUDIO
    TITLE "2:cjc105_6748"
    INDEX 01 03:45:42
  TRACK 209 AUDIO
    TITLE "3:cjc105_6749"
    INDEX 01 03:46:69
  TRACK 210 AUDIO
    TITLE "0:"
    INDEX 01 03:47:66
  TRACK 211 AUDIO
    TITLE "2:cjc105_6750"
    INDEX 01 03:48:13
  TRACK 212 AUDIO
    TITLE "3:cjc105_6751"
    INDEX 01 03:49:59
  TRACK 213 AUDIO
    TITLE "0:"
    INDEX 01 03:51:00
  TRACK 214 AUDIO
    TITLE "2:cjc105_6752"
    INDEX 01 03:51:15
  TRACK 215 AUDIO
    TITLE "3:cjc105_6753"
    INDEX 01 03:53:26
  TRACK 216 AUDIO
    TITLE "0:"
    INDEX 01 03:55:11
  TRACK 217 AUDIO
    TITLE "2:cjc105_6754"
    INDEX 01 03:55:35
  TRACK 218 AUDIO
    TITLE "3:cjc105_6755"
    INDEX 01 03:56:52
  TRACK 219 AUDIO
    TITLE "0:"
    INDEX 01 03:57:65
  TRACK 220 AUDIO
    TITLE "2:cjc105_6756"
    INDEX 01 03:58:15
  TRACK 221 AUDIO
    TITLE "3:cjc105_6757"
    INDEX 01 03:59:48
  TRACK 222 AUDIO
    TITLE "0:"
    INDEX 01 04:01:06
  TRACK 223 AUDIO
    TITLE "2:cjc105_6758"
    INDEX 01 04:01:23
  TRACK 224 AUDIO
    TITLE "3:cjc105_6759"
    INDEX 01 04:03:16
  TRACK 225 AUDIO
    TITLE "0:"
    INDEX 01 04:04:63
  TRACK 226 AUDIO
    TITLE "2:cjc105_6760"
    INDEX 01 04:05:09
  TRACK 227 AUDIO
    TITLE "3:cjc105_6761"
    INDEX 01 04:06:58
  TRACK 228 AUDIO
    TITLE "0:"
    INDEX 01 04:08:31
  TRACK 229 AUDIO
    TITLE "2:cjc105_6762"
    INDEX 01 04:08:47
  TRACK 230 AUDIO
    TITLE "3:cjc105_6763"
    INDEX 01 04:10:11
  TRACK 231 AUDIO
    TITLE "0:"
    INDEX 01 04:11:71
  TRACK 232 AUDIO
    TITLE "2:cjc105_6764"
    INDEX 01 04:12:19
  TRACK 233 AUDIO
    TITLE "3:cjc105_6765"
    INDEX 01 04:13:70
  TRACK 234 AUDIO
    TITLE "0:"
    INDEX 01 04:15:29
  TRACK 235 AUDIO
    TITLE "2:cjc105_6766"
    INDEX 01 04:15:49
  TRACK 236 AUDIO
    TITLE "3:cjc105_6767"
    INDEX 01 04:17:07
  TRACK 237 AUDIO
    TITLE "0:"
    INDEX 01 04:18:08
  TRACK 238 AUDIO
    TITLE "2:cjc105_6768"
    INDEX 01 04:18:30
  TRACK 239 AUDIO
    TITLE "3:cjc105_6769"
    INDEX 01 04:19:43
  TRACK 240 AUDIO
    TITLE "0:"
    INDEX 01 04:20:68
  TRACK 241 AUDIO
    TITLE "2:cjc105_6770"
    INDEX 01 04:21:09
  TRACK 242 AUDIO
    TITLE "3:cjc105_6771"
    INDEX 01 04:22:51
  TRACK 243 AUDIO
    TITLE "0:"
    INDEX 01 04:24:03
  TRACK 244 AUDIO
    TITLE "2:cjc105_6772"
    INDEX 01 04:24:24
  TRACK 245 AUDIO
    TITLE "3:cjc105_6773"
    INDEX 01 04:25:20
  TRACK 246 AUDIO
    TITLE "0:"
    INDEX 01 04:26:35
  TRACK 247 AUDIO
    TITLE "2:cjc105_6774"
    INDEX 01 04:26:49
  TRACK 248 AUDIO
    TITLE "3:cjc105_6775"
    INDEX 01 04:27:56
  TRACK 249 AUDIO
    TITLE "0:"
    INDEX 01 04:28:65
  TRACK 250 AUDIO
    TITLE "2:cjc105_6776"
    INDEX 01 04:29:10
  TRACK 251 AUDIO
    TITLE "3:cjc105_6777"
    INDEX 01 04:31:15
  TRACK 252 AUDIO
    TITLE "0:"
    INDEX 01 04:33:59
  TRACK 253 AUDIO
    TITLE "2:cjc105_6778"
    INDEX 01 04:34:07
  TRACK 254 AUDIO
    TITLE "3:cjc105_6779"
    INDEX 01 04:35:73
  TRACK 255 AUDIO
    TITLE "0:"
    INDEX 01 04:37:64
  TRACK 256 AUDIO
    TITLE "2:cjc105_6780"
    INDEX 01 04:38:07
  TRACK 257 AUDIO
    TITLE "3:cjc105_6781"
    INDEX 01 04:39:38
  TRACK 258 AUDIO
    TITLE "0:"
    INDEX 01 04:41:11
  TRACK 259 AUDIO
    TITLE "2:cjc105_6782"
    INDEX 01 04:41:33
  TRACK 260 AUDIO
    TITLE "3:cjc105_6783"
    INDEX 01 04:42:38
  TRACK 261 AUDIO
    TITLE "0:"
    INDEX 01 04:43:63
  TRACK 262 AUDIO
    TITLE "2:cjc105_6784"
    INDEX 01 04:44:08
  TRACK 263 AUDIO
    TITLE "3:cjc105_6785"
    INDEX 01 04:45:58
  TRACK 264 AUDIO
    TITLE "0:"
    INDEX 01 04:47:53
  TRACK 265 AUDIO
    TITLE "2:cjc105_6786"
    INDEX 01 04:47:71
  TRACK 266 AUDIO
    TITLE "3:cjc105_6787"
    INDEX 01 04:50:42
  TRACK 267 AUDIO
    TITLE "0:"
    INDEX 01 04:53:36
  TRACK 268 AUDIO
    TITLE "2:cjc105_6788"
    INDEX 01 04:53:57
  TRACK 269 AUDIO
    TITLE "3:cjc105_6789"
    INDEX 01 04:55:74
  TRACK 270 AUDIO
    TITLE "0:"
    INDEX 01 04:58:51
  TRACK 271 AUDIO
    TITLE "2:cjc105_6790"
    INDEX 01 04:58:72
  TRACK 272 AUDIO
    TITLE "3:cjc105_6791"
    INDEX 01 05:00:03
  TRACK 273 AUDIO
    TITLE "0:"
    INDEX 01 05:01:10
  TRACK 274 AUDIO
    TITLE "2:cjc105_6792"
    INDEX 01 05:01:33
  TRACK 275 AUDIO
    TITLE "3:cjc105_6793"
    INDEX 01 05:02:64
  TRACK 276 AUDIO
    TITLE "0:"
    INDEX 01 05:04:12
  TRACK 277 AUDIO
    TITLE "2:cjc105_6794"
    INDEX 01 05:04:30
  TRACK 278 AUDIO
    TITLE "3:cjc105_6795"
    INDEX 01 05:05:39
  TRACK 279 AUDIO
    TITLE "0:"
    INDEX 01 05:06:48
  TRACK 280 AUDIO
    TITLE "2:cjc105_6796"
    INDEX 01 05:06:66
  TRACK 281 AUDIO
    TITLE "3:cjc105_6797"
    INDEX 01 05:08:28
  TRACK 282 AUDIO
    TITLE "0:"
    INDEX 01 05:09:60
  TRACK 283 AUDIO
    TITLE "2:cjc105_6798"
    INDEX 01 05:10:07
  TRACK 284 AUDIO
    TITLE "3:cjc105_6799"
    INDEX 01 05:11:48
  TRACK 285 AUDIO
    TITLE "0:"
    INDEX 01 05:13:37
  TRACK 286 AUDIO
    TITLE "2:cjc105_6800"
    INDEX 01 05:13:54
  TRACK 287 AUDIO
    TITLE "3:cjc105_6801"
    INDEX 01 05:15:04
  TRACK 288 AUDIO
    TITLE "0:"
    INDEX 01 05:16:21
  TRACK 289 AUDIO
    TITLE "2:cjc105_6802"
    INDEX 01 05:16:47
  TRACK 290 AUDIO
    TITLE "3:cjc105_6803"
    INDEX 01 05:18:50
  TRACK 291 AUDIO
    TITLE "0:"
    INDEX 01 05:20:62
